<mxfile host="app.diagrams.net" modified="2022-08-18T10:54:22.490Z" agent="5.0 (Macintosh; Intel Mac OS X 10_15_7) AppleWebKit/537.36 (KHTML, like Gecko) Chrome/104.0.0.0 Safari/537.36" etag="Fa6U2cfd7Grjt3Apxx7d" version="20.2.4" type="github">
  <diagram id="RbXN_SYNOPDwcVzI38QZ" name="Page-1">
    <mxGraphModel dx="1426" dy="768" grid="1" gridSize="10" guides="1" tooltips="1" connect="1" arrows="1" fold="1" page="1" pageScale="1" pageWidth="827" pageHeight="1169" math="0" shadow="0">
      <root>
        <mxCell id="0" />
        <mxCell id="1" parent="0" />
        <mxCell id="OR4KiLP7r7vhhV5RC_st-1" value="1" style="ellipse;whiteSpace=wrap;html=1;aspect=fixed;" vertex="1" parent="1">
          <mxGeometry x="300" y="100" width="40" height="40" as="geometry" />
        </mxCell>
        <mxCell id="OR4KiLP7r7vhhV5RC_st-2" value="2" style="ellipse;whiteSpace=wrap;html=1;aspect=fixed;" vertex="1" parent="1">
          <mxGeometry x="250" y="170" width="40" height="40" as="geometry" />
        </mxCell>
        <mxCell id="OR4KiLP7r7vhhV5RC_st-3" value="3" style="ellipse;whiteSpace=wrap;html=1;aspect=fixed;" vertex="1" parent="1">
          <mxGeometry x="354" y="170" width="40" height="40" as="geometry" />
        </mxCell>
        <mxCell id="OR4KiLP7r7vhhV5RC_st-4" value="4" style="ellipse;whiteSpace=wrap;html=1;aspect=fixed;" vertex="1" parent="1">
          <mxGeometry x="180" y="230" width="40" height="40" as="geometry" />
        </mxCell>
        <mxCell id="OR4KiLP7r7vhhV5RC_st-5" value="5" style="ellipse;whiteSpace=wrap;html=1;aspect=fixed;" vertex="1" parent="1">
          <mxGeometry x="270" y="230" width="40" height="40" as="geometry" />
        </mxCell>
        <mxCell id="OR4KiLP7r7vhhV5RC_st-6" value="6" style="ellipse;whiteSpace=wrap;html=1;aspect=fixed;" vertex="1" parent="1">
          <mxGeometry x="394" y="240" width="40" height="40" as="geometry" />
        </mxCell>
        <mxCell id="OR4KiLP7r7vhhV5RC_st-7" value="7" style="ellipse;whiteSpace=wrap;html=1;aspect=fixed;" vertex="1" parent="1">
          <mxGeometry x="230" y="310" width="40" height="40" as="geometry" />
        </mxCell>
        <mxCell id="OR4KiLP7r7vhhV5RC_st-8" value="8" style="ellipse;whiteSpace=wrap;html=1;aspect=fixed;" vertex="1" parent="1">
          <mxGeometry x="300" y="310" width="40" height="40" as="geometry" />
        </mxCell>
      </root>
    </mxGraphModel>
  </diagram>
</mxfile>
